# xmcd CD database file
#
# Track frame offsets:
#	150
#	10947
#	19775
#	27907
#	37920
#	49735
#	60550
#	70590
#	79570
#	91062
#	102922
#	116470
#	131760
#	142565
#	155745
#	166237
#	175700
#	185155
#	195405
#	207202
#	215910
#	227680
#	239750
#	252352
#	266002
#	277970
#
# Disc length: 3846 seconds
#
# Revision: 3
# Processed by: cddbd v1.5.1PL0 Copyright (c) Steve Scherf et al.
# Submitted via: CDex 1.51
#
DISCID=600f041a
DTITLE=John D. Loudermilk - Blue Train
DYEAR=1900
DGENRE=Pop
TTITLE0=Blue Train (Of The Heartbreak Line)
TTITLE1=Mister Jones
TTITLE2=Language Of Love
TTITLE3=Jimmie´s Song
TTITLE4=Angela Jones
TTITLE5=The Bully Of The Beach
TTITLE6=Rhythm And Blues
TTITLE7=What Would You Take For Me
TTITLE8=The Great Snowman
TTITLE9=Everybody Knows
TTITLE10=Google Eye
TTITLE11=Darling Jane
TTITLE12=Song Of The Lonely Teen
TTITLE13=All Of This For Sally
TTITLE14=Road Hog
TTITLE15=He´s Just A Scientist (That´s All)
TTITLE16=The Rocks Of Reno
TTITLE17=Big Daddy
TTITLE18=Callin´ Dr. Casey
TTITLE19=You Just Reap What You Sow
TTITLE20=The Little Wind-Up Doll
TTITLE21=Two Strangers In Love
TTITLE22=Th´ Wife
TTITLE23=Bad News
TTITLE24=Run On Home Baby Brother
TTITLE25=Oh How Sad
EXTD=
EXTT0=Yesterday: 03.03.1995
EXTT1=
EXTT2=Yesterday: 28.04.95 , 24.10.03
EXTT3=Yesterday: 07.04.1995
EXTT4=Yesterday: 26.05.1995
EXTT5=
EXTT6=
EXTT7=
EXTT8=Yesterday: 05.01.1996
EXTT9=
EXTT10=Yesterday: 17.04.1998
EXTT11=
EXTT12=
EXTT13=
EXTT14=
EXTT15=
EXTT16=
EXTT17=
EXTT18=
EXTT19=
EXTT20=
EXTT21=
EXTT22=
EXTT23=
EXTT24=Yesterday: 03.02.1995
EXTT25=
PLAYORDER=
